<mxfile host="Electron" agent="Mozilla/5.0 (Windows NT 10.0; Win64; x64) AppleWebKit/537.36 (KHTML, like Gecko) draw.io/26.0.9 Chrome/128.0.6613.186 Electron/32.2.5 Safari/537.36" version="26.0.9">
  <diagram name="Page-1" id="I_InMKWw7Sy3HNKGzeCr">
    <mxGraphModel dx="2074" dy="1244" grid="1" gridSize="10" guides="1" tooltips="1" connect="1" arrows="1" fold="1" page="1" pageScale="1" pageWidth="1920" pageHeight="1200" math="0" shadow="0">
      <root>
        <mxCell id="0" />
        <mxCell id="1" parent="0" />
        <mxCell id="ZcvGzHDjg2uuRNyxLvDo-1" value="&lt;b&gt;&lt;font style=&quot;font-size: 25px;&quot;&gt;Integration model&lt;/font&gt;&lt;/b&gt;" style="text;html=1;align=center;verticalAlign=middle;whiteSpace=wrap;rounded=0;" parent="1" vertex="1">
          <mxGeometry x="50" y="20" width="240" height="30" as="geometry" />
        </mxCell>
        <mxCell id="ZcvGzHDjg2uuRNyxLvDo-2" value="crm_cust_info" style="swimlane;fontStyle=0;childLayout=stackLayout;horizontal=1;startSize=30;horizontalStack=0;resizeParent=1;resizeParentMax=0;resizeLast=0;collapsible=1;marginBottom=0;whiteSpace=wrap;html=1;rounded=1;fillColor=#dae8fc;strokeColor=#6c8ebf;fontSize=26;" parent="1" vertex="1">
          <mxGeometry x="610" y="507" width="230" height="110" as="geometry" />
        </mxCell>
        <mxCell id="ZcvGzHDjg2uuRNyxLvDo-3" value="cst_id" style="text;strokeColor=none;fillColor=none;align=left;verticalAlign=middle;spacingLeft=4;spacingRight=4;overflow=hidden;points=[[0,0.5],[1,0.5]];portConstraint=eastwest;rotatable=0;whiteSpace=wrap;html=1;fontSize=26;" parent="ZcvGzHDjg2uuRNyxLvDo-2" vertex="1">
          <mxGeometry y="30" width="230" height="40" as="geometry" />
        </mxCell>
        <mxCell id="ZcvGzHDjg2uuRNyxLvDo-19" value="cst_key" style="text;strokeColor=none;fillColor=none;align=left;verticalAlign=middle;spacingLeft=4;spacingRight=4;overflow=hidden;points=[[0,0.5],[1,0.5]];portConstraint=eastwest;rotatable=0;whiteSpace=wrap;html=1;fontSize=26;" parent="ZcvGzHDjg2uuRNyxLvDo-2" vertex="1">
          <mxGeometry y="70" width="230" height="40" as="geometry" />
        </mxCell>
        <mxCell id="ZcvGzHDjg2uuRNyxLvDo-6" value="&lt;font style=&quot;font-size: 20px;&quot;&gt;Customer Information&lt;/font&gt;" style="text;html=1;align=center;verticalAlign=middle;whiteSpace=wrap;rounded=0;" parent="1" vertex="1">
          <mxGeometry x="610" y="478" width="230" height="30" as="geometry" />
        </mxCell>
        <mxCell id="ZcvGzHDjg2uuRNyxLvDo-7" value="crm_prd_info" style="swimlane;fontStyle=0;childLayout=stackLayout;horizontal=1;startSize=30;horizontalStack=0;resizeParent=1;resizeParentMax=0;resizeLast=0;collapsible=1;marginBottom=0;whiteSpace=wrap;html=1;rounded=1;fillColor=#dae8fc;strokeColor=#6c8ebf;fontSize=26;" parent="1" vertex="1">
          <mxGeometry x="605" y="298" width="230" height="70" as="geometry" />
        </mxCell>
        <mxCell id="ZcvGzHDjg2uuRNyxLvDo-8" value="prd_key" style="text;strokeColor=none;fillColor=none;align=left;verticalAlign=middle;spacingLeft=4;spacingRight=4;overflow=hidden;points=[[0,0.5],[1,0.5]];portConstraint=eastwest;rotatable=0;whiteSpace=wrap;html=1;fontSize=26;" parent="ZcvGzHDjg2uuRNyxLvDo-7" vertex="1">
          <mxGeometry y="30" width="230" height="40" as="geometry" />
        </mxCell>
        <mxCell id="ZcvGzHDjg2uuRNyxLvDo-9" value="&lt;font style=&quot;font-size: 20px;&quot;&gt;Current &amp;amp; History Product Information&lt;/font&gt;" style="text;html=1;align=center;verticalAlign=middle;whiteSpace=wrap;rounded=0;" parent="1" vertex="1">
          <mxGeometry x="545" y="269" width="360" height="30" as="geometry" />
        </mxCell>
        <mxCell id="ZcvGzHDjg2uuRNyxLvDo-10" value="crm_sales_details" style="swimlane;fontStyle=0;childLayout=stackLayout;horizontal=1;startSize=30;horizontalStack=0;resizeParent=1;resizeParentMax=0;resizeLast=0;collapsible=1;marginBottom=0;whiteSpace=wrap;html=1;rounded=1;fillColor=#dae8fc;strokeColor=#6c8ebf;fontSize=26;" parent="1" vertex="1">
          <mxGeometry x="210" y="368" width="230" height="110" as="geometry" />
        </mxCell>
        <mxCell id="ZcvGzHDjg2uuRNyxLvDo-11" value="prd_key" style="text;strokeColor=none;fillColor=none;align=left;verticalAlign=middle;spacingLeft=4;spacingRight=4;overflow=hidden;points=[[0,0.5],[1,0.5]];portConstraint=eastwest;rotatable=0;whiteSpace=wrap;html=1;fontSize=26;" parent="ZcvGzHDjg2uuRNyxLvDo-10" vertex="1">
          <mxGeometry y="30" width="230" height="40" as="geometry" />
        </mxCell>
        <mxCell id="ZcvGzHDjg2uuRNyxLvDo-13" value="cst_id" style="text;strokeColor=none;fillColor=none;align=left;verticalAlign=middle;spacingLeft=4;spacingRight=4;overflow=hidden;points=[[0,0.5],[1,0.5]];portConstraint=eastwest;rotatable=0;whiteSpace=wrap;html=1;fontSize=26;" parent="ZcvGzHDjg2uuRNyxLvDo-10" vertex="1">
          <mxGeometry y="70" width="230" height="40" as="geometry" />
        </mxCell>
        <mxCell id="ZcvGzHDjg2uuRNyxLvDo-12" value="&lt;font style=&quot;font-size: 20px;&quot;&gt;Transactional Records about Sales &amp;amp; Orders&lt;/font&gt;" style="text;html=1;align=center;verticalAlign=middle;whiteSpace=wrap;rounded=0;" parent="1" vertex="1">
          <mxGeometry x="150" y="320" width="360" height="49" as="geometry" />
        </mxCell>
        <mxCell id="ZcvGzHDjg2uuRNyxLvDo-14" style="edgeStyle=orthogonalEdgeStyle;rounded=0;orthogonalLoop=1;jettySize=auto;html=1;entryX=0;entryY=0.5;entryDx=0;entryDy=0;" parent="1" source="ZcvGzHDjg2uuRNyxLvDo-13" target="ZcvGzHDjg2uuRNyxLvDo-3" edge="1">
          <mxGeometry relative="1" as="geometry" />
        </mxCell>
        <mxCell id="ZcvGzHDjg2uuRNyxLvDo-15" style="edgeStyle=orthogonalEdgeStyle;rounded=0;orthogonalLoop=1;jettySize=auto;html=1;entryX=0;entryY=0.5;entryDx=0;entryDy=0;" parent="1" source="ZcvGzHDjg2uuRNyxLvDo-11" target="ZcvGzHDjg2uuRNyxLvDo-8" edge="1">
          <mxGeometry relative="1" as="geometry" />
        </mxCell>
        <mxCell id="ZcvGzHDjg2uuRNyxLvDo-16" value="erp_cust_az12" style="swimlane;fontStyle=0;childLayout=stackLayout;horizontal=1;startSize=30;horizontalStack=0;resizeParent=1;resizeParentMax=0;resizeLast=0;collapsible=1;marginBottom=0;whiteSpace=wrap;html=1;rounded=1;fillColor=#fff2cc;strokeColor=#d6b656;fontSize=26;" parent="1" vertex="1">
          <mxGeometry x="1110" y="445.5" width="230" height="70" as="geometry" />
        </mxCell>
        <mxCell id="ZcvGzHDjg2uuRNyxLvDo-17" value="cid" style="text;strokeColor=none;fillColor=none;align=left;verticalAlign=middle;spacingLeft=4;spacingRight=4;overflow=hidden;points=[[0,0.5],[1,0.5]];portConstraint=eastwest;rotatable=0;whiteSpace=wrap;html=1;fontSize=26;" parent="ZcvGzHDjg2uuRNyxLvDo-16" vertex="1">
          <mxGeometry y="30" width="230" height="40" as="geometry" />
        </mxCell>
        <mxCell id="ZcvGzHDjg2uuRNyxLvDo-18" value="&lt;font style=&quot;font-size: 20px;&quot;&gt;Extra Customer&amp;nbsp; Information (Birthdate)&lt;/font&gt;" style="text;html=1;align=center;verticalAlign=middle;whiteSpace=wrap;rounded=0;" parent="1" vertex="1">
          <mxGeometry x="1050" y="416.5" width="360" height="30" as="geometry" />
        </mxCell>
        <mxCell id="ZcvGzHDjg2uuRNyxLvDo-20" style="edgeStyle=orthogonalEdgeStyle;rounded=0;orthogonalLoop=1;jettySize=auto;html=1;entryX=1;entryY=0.5;entryDx=0;entryDy=0;" parent="1" source="ZcvGzHDjg2uuRNyxLvDo-17" target="ZcvGzHDjg2uuRNyxLvDo-19" edge="1">
          <mxGeometry relative="1" as="geometry" />
        </mxCell>
        <mxCell id="ZcvGzHDjg2uuRNyxLvDo-23" value="erp_loc_a101" style="swimlane;fontStyle=0;childLayout=stackLayout;horizontal=1;startSize=30;horizontalStack=0;resizeParent=1;resizeParentMax=0;resizeLast=0;collapsible=1;marginBottom=0;whiteSpace=wrap;html=1;rounded=1;fillColor=#fff2cc;strokeColor=#d6b656;fontSize=26;" parent="1" vertex="1">
          <mxGeometry x="1105" y="677.5" width="230" height="70" as="geometry" />
        </mxCell>
        <mxCell id="ZcvGzHDjg2uuRNyxLvDo-24" value="cid" style="text;strokeColor=none;fillColor=none;align=left;verticalAlign=middle;spacingLeft=4;spacingRight=4;overflow=hidden;points=[[0,0.5],[1,0.5]];portConstraint=eastwest;rotatable=0;whiteSpace=wrap;html=1;fontSize=26;" parent="ZcvGzHDjg2uuRNyxLvDo-23" vertex="1">
          <mxGeometry y="30" width="230" height="40" as="geometry" />
        </mxCell>
        <mxCell id="ZcvGzHDjg2uuRNyxLvDo-25" value="&lt;font style=&quot;font-size: 20px;&quot;&gt;Location of Customer (Country)&lt;/font&gt;" style="text;html=1;align=center;verticalAlign=middle;whiteSpace=wrap;rounded=0;" parent="1" vertex="1">
          <mxGeometry x="1045" y="648.5" width="360" height="30" as="geometry" />
        </mxCell>
        <mxCell id="ZcvGzHDjg2uuRNyxLvDo-26" style="edgeStyle=orthogonalEdgeStyle;rounded=0;orthogonalLoop=1;jettySize=auto;html=1;" parent="1" source="ZcvGzHDjg2uuRNyxLvDo-24" target="ZcvGzHDjg2uuRNyxLvDo-19" edge="1">
          <mxGeometry relative="1" as="geometry" />
        </mxCell>
        <mxCell id="ZcvGzHDjg2uuRNyxLvDo-27" value="erp_px_cat_g1v2" style="swimlane;fontStyle=0;childLayout=stackLayout;horizontal=1;startSize=30;horizontalStack=0;resizeParent=1;resizeParentMax=0;resizeLast=0;collapsible=1;marginBottom=0;whiteSpace=wrap;html=1;rounded=1;fillColor=#fff2cc;strokeColor=#d6b656;fontSize=26;" parent="1" vertex="1">
          <mxGeometry x="1100" y="197.5" width="230" height="70" as="geometry" />
        </mxCell>
        <mxCell id="ZcvGzHDjg2uuRNyxLvDo-28" value="cid" style="text;strokeColor=none;fillColor=none;align=left;verticalAlign=middle;spacingLeft=4;spacingRight=4;overflow=hidden;points=[[0,0.5],[1,0.5]];portConstraint=eastwest;rotatable=0;whiteSpace=wrap;html=1;fontSize=26;" parent="ZcvGzHDjg2uuRNyxLvDo-27" vertex="1">
          <mxGeometry y="30" width="230" height="40" as="geometry" />
        </mxCell>
        <mxCell id="ZcvGzHDjg2uuRNyxLvDo-29" value="&lt;font style=&quot;font-size: 20px;&quot;&gt;Extra Customer&amp;nbsp; Information (Birthdate)&lt;/font&gt;" style="text;html=1;align=center;verticalAlign=middle;whiteSpace=wrap;rounded=0;" parent="1" vertex="1">
          <mxGeometry x="1040" y="168.5" width="360" height="30" as="geometry" />
        </mxCell>
        <mxCell id="ZcvGzHDjg2uuRNyxLvDo-30" style="edgeStyle=orthogonalEdgeStyle;rounded=0;orthogonalLoop=1;jettySize=auto;html=1;" parent="1" source="ZcvGzHDjg2uuRNyxLvDo-28" target="ZcvGzHDjg2uuRNyxLvDo-8" edge="1">
          <mxGeometry relative="1" as="geometry" />
        </mxCell>
        <mxCell id="ZcvGzHDjg2uuRNyxLvDo-31" value="" style="rounded=1;whiteSpace=wrap;html=1;arcSize=6;fillColor=none;dashed=1;" parent="1" vertex="1">
          <mxGeometry x="110" y="150" width="780" height="650" as="geometry" />
        </mxCell>
        <mxCell id="ZcvGzHDjg2uuRNyxLvDo-32" value="&lt;b style=&quot;&quot;&gt;&lt;font style=&quot;font-size: 25px;&quot;&gt;CRM&lt;/font&gt;&lt;/b&gt;" style="rounded=1;whiteSpace=wrap;html=1;fillColor=#dae8fc;strokeColor=#6c8ebf;" parent="1" vertex="1">
          <mxGeometry x="425" y="120" width="120" height="60" as="geometry" />
        </mxCell>
        <mxCell id="ZcvGzHDjg2uuRNyxLvDo-34" value="" style="rounded=1;whiteSpace=wrap;html=1;arcSize=6;fillColor=none;dashed=1;" parent="1" vertex="1">
          <mxGeometry x="930" y="150" width="780" height="650" as="geometry" />
        </mxCell>
        <mxCell id="ZcvGzHDjg2uuRNyxLvDo-35" value="&lt;span style=&quot;font-size: 25px;&quot;&gt;&lt;b&gt;ERP&lt;/b&gt;&lt;/span&gt;" style="rounded=1;whiteSpace=wrap;html=1;fillColor=#fff2cc;strokeColor=#d6b656;" parent="1" vertex="1">
          <mxGeometry x="1270" y="108.5" width="120" height="60" as="geometry" />
        </mxCell>
        <mxCell id="CJQoQxPDZFZqDJSib1Ea-1" value="Product" style="text;html=1;strokeColor=#b85450;fillColor=#f8cecc;align=center;verticalAlign=middle;whiteSpace=wrap;overflow=hidden;fontSize=20;fontStyle=1" vertex="1" parent="1">
          <mxGeometry x="605" y="360" width="230" height="30" as="geometry" />
        </mxCell>
        <mxCell id="CJQoQxPDZFZqDJSib1Ea-2" value="Product" style="text;html=1;strokeColor=#b85450;fillColor=#f8cecc;align=center;verticalAlign=middle;whiteSpace=wrap;overflow=hidden;fontSize=20;fontStyle=1" vertex="1" parent="1">
          <mxGeometry x="1100" y="260" width="230" height="30" as="geometry" />
        </mxCell>
        <mxCell id="CJQoQxPDZFZqDJSib1Ea-3" value="Customer" style="text;html=1;strokeColor=#82b366;fillColor=#d5e8d4;align=center;verticalAlign=middle;whiteSpace=wrap;overflow=hidden;fontSize=20;fontStyle=1" vertex="1" parent="1">
          <mxGeometry x="610" y="610" width="230" height="30" as="geometry" />
        </mxCell>
        <mxCell id="CJQoQxPDZFZqDJSib1Ea-4" value="Customer" style="text;html=1;strokeColor=#82b366;fillColor=#d5e8d4;align=center;verticalAlign=middle;whiteSpace=wrap;overflow=hidden;fontSize=20;fontStyle=1" vertex="1" parent="1">
          <mxGeometry x="1110" y="508" width="230" height="30" as="geometry" />
        </mxCell>
        <mxCell id="CJQoQxPDZFZqDJSib1Ea-5" value="Customer" style="text;html=1;strokeColor=#82b366;fillColor=#d5e8d4;align=center;verticalAlign=middle;whiteSpace=wrap;overflow=hidden;fontSize=20;fontStyle=1" vertex="1" parent="1">
          <mxGeometry x="1105" y="740" width="230" height="30" as="geometry" />
        </mxCell>
        <mxCell id="CJQoQxPDZFZqDJSib1Ea-6" value="Sales" style="text;html=1;strokeColor=#9673a6;fillColor=#e1d5e7;align=center;verticalAlign=middle;whiteSpace=wrap;overflow=hidden;fontSize=20;fontStyle=1" vertex="1" parent="1">
          <mxGeometry x="210" y="470" width="230" height="30" as="geometry" />
        </mxCell>
      </root>
    </mxGraphModel>
  </diagram>
</mxfile>
